HIERARCHY
ROOT hip
{
  OFFSET 0.00112043 5.09927 -9.65472
  CHANNELS 6 Xposition Yposition Zposition Zrotation Xrotation Yrotation
  JOINT abdomen
  {
    OFFSET 0 -1.186 -1.5018
    CHANNELS 3 Zrotation Xrotation Yrotation
    JOINT abdomen2
    {
      OFFSET 0 9.964 0.2134
      CHANNELS 3 Zrotation Xrotation Yrotation
      JOINT chest
      {
        OFFSET 0 13.134 -3.2573
        CHANNELS 3 Zrotation Xrotation Yrotation
        JOINT neck
        {
          OFFSET 0 20.686 -1.6905
          CHANNELS 3 Zrotation Xrotation Yrotation
          JOINT head
          {
            OFFSET 0 7.238 -0.1237
            CHANNELS 3 Zrotation Xrotation Yrotation
            End Site
            {
              OFFSET 0 0 0
            }
          }
        }
        JOINT lCollar
        {
          OFFSET 1.7069 20.075 5.0056
          CHANNELS 3 Zrotation Xrotation Yrotation
          JOINT lShldr
          {
            OFFSET 13.6458 -0.047 -4.849
            CHANNELS 3 Zrotation Xrotation Yrotation
            JOINT lForeArm
            {
              OFFSET 28.3255 -0.9759 2.2888
              CHANNELS 3 Zrotation Xrotation Yrotation
              JOINT lHand
              {
                OFFSET 22.1583 -0.53 10.8316
                CHANNELS 3 Zrotation Xrotation Yrotation
                JOINT lThumb1
                {
                  OFFSET 0.786 0.112 2.5817
                  CHANNELS 3 Zrotation Xrotation Yrotation
                  JOINT lThumb2
                  {
                    OFFSET 0.3601 -0.878 4.2331
                    CHANNELS 3 Zrotation Xrotation Yrotation
                    JOINT lThumb2_End
                    {
                      OFFSET 1.8127 -1.216 2.2227
                      CHANNELS 3 Zrotation Xrotation Yrotation
                      End Site
                      {
                        OFFSET 0.0181 -0.0122 0.0222
                      }
                    }
                  }
                }
                JOINT lCarpal1
                {
                  OFFSET 0.9571 1.114 1.7695
                  CHANNELS 3 Zrotation Xrotation Yrotation
                  JOINT lIndex1
                  {
                    OFFSET 4.1246 0.487 4.1451
                    CHANNELS 3 Zrotation Xrotation Yrotation
                    JOINT lIndex2
                    {
                      OFFSET 3.4052 -1.454 2.7682
                      CHANNELS 3 Zrotation Xrotation Yrotation
                      JOINT lIndex2_End
                      {
                        OFFSET 1.4531 -1.795 1.2713
                        CHANNELS 3 Zrotation Xrotation Yrotation
                        End Site
                        {
                          OFFSET 0.0145 -0.0179 0.0127
                        }
                      }
                    }
                  }
                  JOINT lMid1
                  {
                    OFFSET 5.6954 0.21 2.1184
                    CHANNELS 3 Zrotation Xrotation Yrotation
                    JOINT lMid2
                    {
                      OFFSET 3.9766 -1.54 2.3863
                      CHANNELS 3 Zrotation Xrotation Yrotation
                      JOINT lMid2_End
                      {
                        OFFSET 1.4042 -1.926 1.125
                        CHANNELS 3 Zrotation Xrotation Yrotation
                        End Site
                        {
                          OFFSET 0.014 -0.0193 0.0113
                        }
                      }
                    }
                  }
                }
                JOINT lCarpal2
                {
                  OFFSET 2.0956 0.66 -0.3894
                  CHANNELS 3 Zrotation Xrotation Yrotation
                  JOINT lRing1
                  {
                    OFFSET 5.0395 -0.09 2.4971
                    CHANNELS 3 Zrotation Xrotation Yrotation
                    JOINT lRing2
                    {
                      OFFSET 3.7921 -1.552 1.4806
                      CHANNELS 3 Zrotation Xrotation Yrotation
                      JOINT lRing2_End
                      {
                        OFFSET 1.4655 -1.808 0.9609
                        CHANNELS 3 Zrotation Xrotation Yrotation
                        End Site
                        {
                          OFFSET 0.0147 -0.0181 0.0096
                        }
                      }
                    }
                  }
                  JOINT lPinky1
                  {
                    OFFSET 4.9141 -1.269 0.3591
                    CHANNELS 3 Zrotation Xrotation Yrotation
                    JOINT lPinky2
                    {
                      OFFSET 3.1477 -1.685 0.8462
                      CHANNELS 3 Zrotation Xrotation Yrotation
                      JOINT lPinky2_End
                      {
                        OFFSET 0.8055 -1.585 0.7955
                        CHANNELS 3 Zrotation Xrotation Yrotation
                        End Site
                        {
                          OFFSET 0.0081 -0.0158 0.008
                        }
                      }
                    }
                  }
                }
              }
            }
          }
        }
        JOINT rCollar
        {
          OFFSET -1.7069 20.075 5.0056
          CHANNELS 3 Zrotation Xrotation Yrotation
          JOINT rShldr
          {
            OFFSET -13.6458 -0.047 -4.849
            CHANNELS 3 Zrotation Xrotation Yrotation
            JOINT rForeArm
            {
              OFFSET -28.3255 -0.9759 2.2888
              CHANNELS 3 Zrotation Xrotation Yrotation
              JOINT rHand
              {
                OFFSET -22.1583 -0.53 10.8316
                CHANNELS 3 Zrotation Xrotation Yrotation
                JOINT rThumb1
                {
                  OFFSET -0.786 0.112 2.5817
                  CHANNELS 3 Zrotation Xrotation Yrotation
                  JOINT rThumb2
                  {
                    OFFSET -0.3601 -0.878 4.2331
                    CHANNELS 3 Zrotation Xrotation Yrotation
                    JOINT rThumb2_End
                    {
                      OFFSET -1.8127 -1.216 2.2227
                      CHANNELS 3 Zrotation Xrotation Yrotation
                      End Site
                      {
                        OFFSET -0.0181 -0.0122 0.0222
                      }
                    }
                  }
                }
                JOINT rCarpal1
                {
                  OFFSET -0.9571 1.114 1.7695
                  CHANNELS 3 Zrotation Xrotation Yrotation
                  JOINT rIndex1
                  {
                    OFFSET -4.1246 0.487 4.1451
                    CHANNELS 3 Zrotation Xrotation Yrotation
                    JOINT rIndex2
                    {
                      OFFSET -3.4052 -1.454 2.7682
                      CHANNELS 3 Zrotation Xrotation Yrotation
                      JOINT rIndex2_End
                      {
                        OFFSET -1.4531 -1.795 1.2713
                        CHANNELS 3 Zrotation Xrotation Yrotation
                        End Site
                        {
                          OFFSET -0.0145 -0.018 0.0127
                        }
                      }
                    }
                  }
                  JOINT rMid1
                  {
                    OFFSET -5.6954 0.21 2.1184
                    CHANNELS 3 Zrotation Xrotation Yrotation
                    JOINT rMid2
                    {
                      OFFSET -3.9766 -1.54 2.3863
                      CHANNELS 3 Zrotation Xrotation Yrotation
                      JOINT rMid2_End
                      {
                        OFFSET -1.4042 -1.926 1.125
                        CHANNELS 3 Zrotation Xrotation Yrotation
                        End Site
                        {
                          OFFSET -0.014 -0.0193 0.0113
                        }
                      }
                    }
                  }
                }
                JOINT rCarpal2
                {
                  OFFSET -2.0956 0.66 -0.3894
                  CHANNELS 3 Zrotation Xrotation Yrotation
                  JOINT rRing1
                  {
                    OFFSET -5.0395 -0.09 2.4971
                    CHANNELS 3 Zrotation Xrotation Yrotation
                    JOINT rRing2
                    {
                      OFFSET -3.7921 -1.552 1.4806
                      CHANNELS 3 Zrotation Xrotation Yrotation
                      JOINT rRing2_End
                      {
                        OFFSET -1.4655 -1.808 0.9609
                        CHANNELS 3 Zrotation Xrotation Yrotation
                        End Site
                        {
                          OFFSET -0.0147 -0.0181 0.0096
                        }
                      }
                    }
                  }
                  JOINT rPinky1
                  {
                    OFFSET -4.9141 -1.269 0.3592
                    CHANNELS 3 Zrotation Xrotation Yrotation
                    JOINT rPinky2
                    {
                      OFFSET -3.1477 -1.685 0.8462
                      CHANNELS 3 Zrotation Xrotation Yrotation
                      JOINT rPinky2_End
                      {
                        OFFSET -0.8055 -1.585 0.7955
                        CHANNELS 3 Zrotation Xrotation Yrotation
                        End Site
                        {
                          OFFSET -0.0081 -0.0158 0.008
                        }
                      }
                    }
                  }
                }
              }
            }
          }
        }
      }
    }
  }
  JOINT lThigh
  {
    OFFSET 8.367 -8.2066 0.5982
    CHANNELS 3 Zrotation Xrotation Yrotation
    JOINT lShin
    {
      OFFSET 2.1923 -43.463 -0.4932
      CHANNELS 3 Zrotation Xrotation Yrotation
      JOINT lFoot
      {
        OFFSET 0.7333 -45.8593 -2.6451
        CHANNELS 3 Zrotation Xrotation Yrotation
        End Site
        {
          OFFSET 2.6618 -4.2699 12.3931
        }
      }
    }
  }
  JOINT rThigh
  {
    OFFSET -8.367 -8.2066 0.5982
    CHANNELS 3 Zrotation Xrotation Yrotation
    JOINT rShin
    {
      OFFSET -2.1923 -43.463 -0.4931
      CHANNELS 3 Zrotation Xrotation Yrotation
      JOINT rFoot
      {
        OFFSET -0.7333 -45.8593 -2.6451
        CHANNELS 3 Zrotation Xrotation Yrotation
        End Site
        {
          OFFSET -2.6618 -4.2699 12.3931
        }
      }
    }
  }
}
MOTION
Frames:	4
Frame Time:	0.0333333
0 91.7903 2.51682 0 0 -0 0 0 -0 0 0 -0 0 0 -0 0 0 -0 0 0 -0 0 0 -0 1.66051 0.0835086 5.75766 -0.0175111 0.895433 15.7816 7.95139e-016 -1.98785e-016 -0 5.46658e-016 -3.97569e-016 -0 5.96354e-016 0 -0 3.97569e-016 1.98785e-016 9.54166e-015 1.49089e-016 -3.97569e-016 -0 6.4605e-016 0 3.18055e-015 5.96354e-016 0 3.18055e-015 8.94531e-016 -1.98785e-016 6.36111e-015 6.4605e-016 0 3.18055e-015 5.96354e-016 0 3.18055e-015 8.94531e-016 -1.98785e-016 6.36111e-015 1.49089e-016 -3.97569e-016 -0 6.4605e-016 0 3.18055e-015 5.96354e-016 0 3.18055e-015 8.94531e-016 -1.98785e-016 6.36111e-015 6.4605e-016 0 3.18055e-015 5.96354e-016 0 3.18055e-015 8.94531e-016 -1.98785e-016 6.36111e-015 0 0 -0 -1.4496 0.0636048 -5.0245 -1.74811 1.20616 -16.8394 -1.19271e-015 1.98785e-016 -3.18055e-015 -3.97569e-016 1.98785e-016 -3.18055e-015 -2.98177e-016 1.98785e-016 -3.18055e-015 -2.98177e-016 3.97569e-016 -0 4.96962e-016 0 -6.36111e-015 -9.93923e-017 3.97569e-016 -0 -8.94531e-016 5.96354e-016 -0 -3.97569e-016 3.97569e-016 -0 -9.93923e-017 3.97569e-016 -0 -8.94531e-016 5.96354e-016 -0 -3.97569e-016 3.97569e-016 -0 4.96962e-016 0 -6.36111e-015 -9.93923e-017 3.97569e-016 -0 -8.94531e-016 5.96354e-016 -0 -3.97569e-016 3.97569e-016 -0 -9.93923e-017 3.97569e-016 -0 -8.94531e-016 5.96354e-016 -0 -3.97569e-016 3.97569e-016 -0 -4.66111 -0.998717 0.12318 0.00986924 1.54847 0.176523 4.65186 -0.572283 -0.254274 4.66111 -0.998765 -0.123176 -0.00986867 1.54869 -0.176537 -4.65186 -0.572453 0.25427 
3.90295 51.622 -26.0522 -17.1461 -15.5427 130.975 0.191761 3.11848 -0.193524 0.394942 6.23629 -0.398314 0.394941 6.23628 -0.398313 -4.68737e-005 0.56094 -2.39916e-005 0.244795 0.091966 3.29881e-006 -10.2469 2.97259 -20.8593 -35.5901 -3.03235 -9.70918 1.97447 -2.67531 -16.7348 -5.72239 1.05738 -0.263726 3.18055e-015 1.59028e-014 -1.59028e-015 3.18055e-015 1.43125e-014 -1.98785e-015 8.4416e-031 1.35174e-014 -3.57812e-015 -1.10348e-032 1.59028e-015 3.97569e-016 3.18055e-015 1.90833e-014 1.11319e-014 -6.36111e-015 1.51076e-014 -1.98785e-015 7.94503e-031 1.43125e-014 -3.18055e-015 3.18055e-015 1.90833e-014 1.11319e-014 -6.36111e-015 1.51076e-014 -1.98785e-015 7.94503e-031 1.43125e-014 -3.18055e-015 -1.10348e-032 1.59028e-015 3.97569e-016 3.18055e-015 1.90833e-014 1.11319e-014 -6.36111e-015 1.51076e-014 -1.98785e-015 7.94503e-031 1.43125e-014 -3.18055e-015 3.18055e-015 1.90833e-014 1.11319e-014 -6.36111e-015 1.51076e-014 -1.98785e-015 7.94503e-031 1.43125e-014 -3.18055e-015 27.188 5.79105 -6.72738 30.4986 41.6351 -1.24769 43.3698 -43.6279 32.3722 12.9724 -32.5955 -4.83432 3.18055e-015 -3.18055e-015 3.18055e-015 3.18055e-015 6.36111e-015 -3.97569e-015 3.18055e-015 3.18055e-015 -2.38542e-015 2.20695e-031 -3.18055e-015 3.97569e-015 6.36111e-015 4.77083e-015 -3.18055e-015 3.18055e-015 3.18055e-015 -2.38542e-015 9.54166e-015 -3.18055e-015 -1.59028e-015 6.36111e-015 4.77083e-015 -3.18055e-015 3.18055e-015 3.18055e-015 -2.38542e-015 9.54166e-015 -3.18055e-015 -1.59028e-015 2.20695e-031 -3.18055e-015 3.97569e-015 6.36111e-015 4.77083e-015 -3.18055e-015 3.18055e-015 3.18055e-015 -2.38542e-015 9.54166e-015 -3.18055e-015 -1.59028e-015 6.36111e-015 4.77083e-015 -3.18055e-015 3.18055e-015 3.18055e-015 -2.38542e-015 9.54166e-015 -3.18055e-015 -1.59028e-015 41.143 -54.2602 62.9864 99.2051 65.839 -119.887 -27.9621 47.2232 23.8191 -41.386 -54.1409 -63.2099 -99.1148 65.8085 119.956 28.1691 47.6237 -23.939 
-3.12643 30.5048 -42.1398 8.59393 -32.2343 -164.181 0.291858 4.41921 -0.276634 0.607903 8.83694 -0.578498 0.607906 8.83696 -0.578501 1.03743e-005 0.607965 1.42539e-006 0.354949 0.133351 1.99838e-006 -14.4085 4.64791 -30.2125 -52.6735 -4.3555 -16.6496 2.00146 -3.57671 -31.1805 -8.28916 1.62113 -0.509098 -3.45506e-006 -2.11219e-006 2.02432e-007 -8.10723e-007 1.14348e-006 -9.10422e-007 -1.21089e-007 5.33222e-007 6.49699e-007 -9.93923e-017 0 9.93923e-016 -3.45506e-006 -2.11219e-006 2.02432e-007 -8.10723e-007 1.14348e-006 -9.10422e-007 -1.21089e-007 5.33222e-007 6.49699e-007 -3.45506e-006 -2.11219e-006 2.02432e-007 -8.10723e-007 1.14348e-006 -9.10422e-007 -1.21089e-007 5.33222e-007 6.49699e-007 -9.93923e-017 0 9.93923e-016 -3.45506e-006 -2.11219e-006 2.02432e-007 -8.10723e-007 1.14348e-006 -9.10422e-007 -1.21089e-007 5.33222e-007 6.49699e-007 -3.45506e-006 -2.11219e-006 2.02432e-007 -8.10723e-007 1.14348e-006 -9.10422e-007 -1.21089e-007 5.33222e-007 6.49699e-007 39.9715 8.29737 -10.2953 42.2921 60.2427 2.4054 83.5534 -39.0822 63.2701 19.1757 -47.5034 -4.48765 6.82496e-007 5.18012e-008 -1.00567e-006 -1.46194e-006 4.64863e-007 -7.49704e-007 3.18055e-015 -1.27222e-014 -0 -6.36111e-015 0 -6.36111e-015 6.82496e-007 5.18012e-008 -1.00567e-006 -1.46194e-006 4.64863e-007 -7.49704e-007 3.18055e-015 0 -3.18055e-015 6.82496e-007 5.18012e-008 -1.00567e-006 -1.46194e-006 4.64863e-007 -7.49704e-007 3.18055e-015 0 -3.18055e-015 -6.36111e-015 0 -6.36111e-015 6.82496e-007 5.18012e-008 -1.00567e-006 -1.46194e-006 4.64863e-007 -7.49704e-007 3.18055e-015 0 -3.18055e-015 6.82496e-007 5.18012e-008 -1.00567e-006 -1.46194e-006 4.64863e-007 -7.49704e-007 3.18055e-015 0 -3.18055e-015 83.1389 -47.144 100.606 129.129 23.4601 -145.052 -60.2461 56.1353 47.8417 -83.139 -47.0415 -100.602 -129.04 23.454 144.998 60.9897 56.5844 -48.4374 
-0.658898 35.9459 -39.2347 -0.000826744 -30.7696 179.998 0.259274 3.90317 -0.261634 0.538339 7.80504 -0.542912 0.538339 7.80506 -0.542913 5.05523e-006 0.140543 2.36304e-006 0.330472 0.124132 3.54217e-007 -14.1112 5.81746 -27.9693 -48.4403 -4.27053 -14.9859 2.13883 -3.51835 -27.429 -7.68763 1.69339 -0.897729 2.48481e-016 3.18055e-015 1.19271e-015 1.18028e-015 0 1.16786e-015 3.47873e-016 0 1.37907e-015 -6.21202e-017 3.18055e-015 6.70898e-016 -2.90723e-015 0 3.46631e-015 -4.5969e-016 0 3.35449e-016 -5.2181e-016 -3.18055e-015 5.96354e-016 -2.90723e-015 0 3.46631e-015 -4.5969e-016 0 3.35449e-016 -5.2181e-016 -3.18055e-015 5.96354e-016 -6.21202e-017 3.18055e-015 6.70898e-016 -2.90723e-015 0 3.46631e-015 -4.5969e-016 0 3.35449e-016 -5.2181e-016 -3.18055e-015 5.96354e-016 -2.90723e-015 0 3.46631e-015 -4.5969e-016 0 3.35449e-016 -5.2181e-016 -3.18055e-015 5.96354e-016 37.3191 7.66961 -10.5763 41.0004 56.1647 0.167006 75.2999 -41.6002 57.7107 20.5625 -43.5626 -2.96048 3.18055e-015 3.18055e-015 1.59028e-015 3.47945e-007 -5.37873e-006 1.66954e-006 -1.06463e-006 1.67246e-006 1.65405e-007 8.82781e-032 -3.18055e-015 1.59028e-015 -6.36111e-015 6.36111e-015 7.95139e-015 3.47945e-007 -5.37873e-006 1.66954e-006 -1.06463e-006 1.67246e-006 1.65405e-007 -6.36111e-015 6.36111e-015 7.95139e-015 3.47945e-007 -5.37873e-006 1.66954e-006 -1.06463e-006 1.67246e-006 1.65405e-007 8.82781e-032 -3.18055e-015 1.59028e-015 -6.36111e-015 6.36111e-015 7.95139e-015 3.47945e-007 -5.37873e-006 1.66954e-006 -1.06463e-006 1.67246e-006 1.65405e-007 -6.36111e-015 6.36111e-015 7.95139e-015 3.47945e-007 -5.37873e-006 1.66954e-006 -1.06463e-006 1.67246e-006 1.65405e-007 75.789 -50.5971 95.6162 125.607 33.1134 -143.672 -52.9519 55.2154 43.1145 -75.8051 -50.5104 -95.6384 -125.527 33.0997 143.62 53.5633 55.66 -43.5952 
